<svg width="345" height="181" xmlns="http://www.w3.org/2000/svg">
  <g fill="none" fill-rule="evenodd">
    <path fill="#F7F6F0" fill-rule="nonzero" d="M169.7 101.6l-147.3-1-1.3-99.1L169.9.9z"/>
    <path stroke="#D8DBDC" stroke-width=".6" stroke-linecap="round" stroke-linejoin="round" d="M22.1 80.5l-1-79 116-.4"/>
    <g opacity=".7" transform="translate(31 7)" stroke="#D8DBDC" stroke-width=".6" stroke-linecap="round" stroke-linejoin="round">
      <path d="M.2.2h37v20.3H.2V.2zm1.9 2.2l31 15.9-31-15.9zm.1 16.5L33.8 3.4 2.2 18.9zM44.7 3.4l32.4.9-32.4-.9zm0 3.6l32.4.9L44.7 7zm0 3.7l10.3.2-10.3-.2zm0 3.6l32.3-.5-32.3.5zm0 3.6h17.4-17.4zm0 3.2l17.7.1-17.7-.1zm0 3.7l17.7-.2-17.7.2zm0 3.6h17.4-17.4zM129.6 73H87.4V.9l42.2-.7V73z"/>
      <path d="M101.5 6h-10V3.4l10.4-.2-.4 2.8zm4.6-1.3h16.4-16.4zM95.5 12h25.8v8.5H95.5V12zm0 12.2l12.3-.3-12.3.3zm12.3 2.4H95.5h12.3zM95.5 29h5.5-5.5zm1.9-15.2l22.3 5.1-22.3-5.1zm22.5-.5l-22.7 5.6 22.7-5.6zm-6.1 10.6h8.7v15.2h-8.7V23.9zm7.4 1.8l-5.4 11.7 5.4-11.7zm-6-.5l6 12.2-6-12.2zM95.5 36.4l5.8-.6-5.8.6zm0 1.9l5.8-.1-5.8.1zm0 2.4l5.8.4-5.8-.4zm0 2.4l5.8-.1-5.8.1zm0 2.4l5.8-.1-5.8.1zM64.7 35.4h15.6V51H64.7V35.4zm14.1 1.8L66.5 49.5l12.3-12.3zm0 11.8L66.9 37.1 78.8 49zM44.2 38.8l16.7.7-16.7-.7zm16.7 4.5l-16.2-.2 16.2.2zm-15.6 4H55h-9.7zm30.2 1.8c2.3 2.8 3.3 5.3 3.2 10.7l-3.2-10.7z"/>
      <circle cx="75.5" cy="49.1" r=".5"/>
      <path d="M65.1 62.4c5.5.1 10.7 0 16.4 0m-16.7 3.3c4.7-.1 9.5-.1 14.2 0"/>
      <circle cx="53.9" cy="74" r=".5"/>
      <path d="M60.9 83.3c5.5.1 10.7 0 16.4 0H60.9zm-.3 3c4.7-.1 11.7-.1 16.5 0H60.6zm.3 2.8c5.5.1 10.7 0 16.4 0H60.9zm-.3 2.9c4.7-.1 9.5-.1 14.2 0H60.6zM.2 32.4h13.2v11.4H.2V32.4zm1.9 1.9l9.4 7.7-9.4-7.7zm9.4 0l-9.8 8.1 9.8-8.1zm56.7-15.8h10.3v8.9H68.2v-8.9zm1.5 1.4l7.3 6-7.3-6zm7.3 0l-7.6 6.4 7.6-6.4zM38.7 67.3h17.5v11.4H38.7V67.3zm2.5 1.9l12.6 7.6-12.6-7.6zm12.6 0l-13.1 8.1 13.1-8.1zM.9 49.6l21.9-.5-21.9.5zm0 3.6l21.9.3-21.9-.3zm0 4.9l21.9-.6-21.9.6zm53 15.9s7.1-.6 8.7 7.2L53.9 74z"/>
    </g>
    <path fill="#F1F1F1" fill-rule="nonzero" d="M147.2 175.5h-4.1v-39h5.8z"/>
    <path d="M134.3 180.3s10.5-12.3 21.9 0h-21.9z" fill="#D8DBDC" fill-rule="nonzero"/>
    <path d="M209.7 19.9c4.6-6.2 27.5-5.2 25.6 13.5-.9 9.1-5 8 .2 28 5.3 20.3-5.1 26-17.2 21.9-22.1-7.5-21.9-5.4-23.8-33.4-1.4-21.6 4.9-30.9 15.2-30z" fill="#B27B62" fill-rule="nonzero"/>
    <path d="M200.7 169.4h5.6v6.2h-5.6v-6.2zm21.9 0h5.6v6.2h-5.6v-6.2z" fill="#F6B37E" fill-rule="nonzero"/>
    <path d="M218.6 172.4h10.7l.8-20.1c.2-7 .2-14-.3-21l-.3-4.9c-.3-4.5-.2-9 .2-13.6.5-5.6.6-4.8.1-10.4l-.1-1.9-30.6 2.5s-1.9 10.5-2.4 28.2c-.1 4.1-.1 8.3.2 12.4l1 15c.1 2.1.2 4.3.1 6.4l-.3 7.4h10.8c-.5-1.9-.9-2.6-1.1-5.2v-18.9c0-5.4.7-10.8 2.2-16.1l4.8-17.6 6 27.2-.2 19.7c-.1.8-.4 1.7-.5 2.5-.1.5-.2 1.1 0 1.6.1.3.3.6.4 1 .4 2.2-1.9 3.7-1.5 5.8z" fill="#BDBEBD" fill-rule="nonzero"/>
    <path d="M222.3 101.3c.8 3.1 2.8 6 5.5 7.7m-24.6-5.7c-1.5 2-2.2 3.1-4.2 4.5m14.3 2.2l2.5 11.4" stroke="#A9A9A9" stroke-width=".6" stroke-linecap="round" stroke-linejoin="round"/>
    <path d="M200.6 82.9c-2.2 24-1.9 20-1.6 20.2 4.2 1.7 9.7 1.6 14.1 1 2-.3 4-.8 6-1 3-.4 7.7-.3 10.7.1 0 0-1.6-11.4-1.6-23.4l-27.6 3.1z" fill="#4C4C4B" fill-rule="nonzero"/>
    <path d="M222.3 46.9c17-24.6-15.3-29.9-18.8-23.7-11.7 21.1 6.3 41.7 18.8 23.7z" fill="#F6B37E" fill-rule="nonzero"/>
    <path fill="#F6B37E" fill-rule="nonzero" d="M212.3 50.1l-1 8.7h9.2l-1.3-10.2z"/>
    <path d="M192.7 82c-.9-6.7 2.5-14.4 5.3-19.4 1.8-3.2 5.1-5.3 8.7-5.7 10.3-.9 25-1.5 26-.4 5.2 5.9-3 25.4-7.7 30.3L192.7 82z" fill="#4C4C4B" fill-rule="nonzero"/>
    <path d="M200.4 86.9l-4.5-1.3c-1.7-.5-3-1.9-3.3-3.6l1.4-1.6c1.2-1.3 2.9-2.1 4.6-1.9 6.9.6 13.9-1.2 20.8-.2v7.4l-19 1.2z" fill="#F6B37E" fill-rule="nonzero"/>
    <path d="M219.1 79.4l5.9 7.5s-13.9 6.1-24.6 0c0 0 8.5-2.1 14.2-5.4 1-.6 2.1-1.1 3.2-1.6l1.3-.5" fill="#F6B37E" fill-rule="nonzero"/>
    <path d="M204.7 85.7c2.9-.9 6.8-2.4 9.9-4.1 1-.6 2.1-1.1 3.2-1.6" stroke="#DD8E58" stroke-width=".6" stroke-linecap="round" stroke-linejoin="round"/>
    <path d="M223.4 70.1c-1 3.1-2.7 6.5-4.3 9.3l4.9 6.2m-23.6-7s1-6.7 2.6-9.2" stroke="#2D2D2D" stroke-width=".6" stroke-linecap="round" stroke-linejoin="round"/>
    <path d="M230.1 30l-13.4-11.7-14.6 4.1-3.9 11.7c1.8.3 8.8-4.1 12.2-6.7.9 1.6 2.7 2.6 4.4 3.2 1.3.4 2.8.5 3.7 1.5.9 1 .9 2.5.9 3.8-.1 5.7 2.7 10.7 3.1 12.2.4 1.8.3 1.5 2.5 2.7l5.1-20.8z" fill="#B27B62" fill-rule="nonzero"/>
    <path d="M210.5 27.4c.9 1.6 2.7 2.6 4.4 3.2 1.3.4 2.8.5 3.7 1.5.9 1 .9 2.5.9 3.8-.1 5.7 2.6 12.6 4.6 14.4" stroke="#9B6049" stroke-width=".6" stroke-linecap="round" stroke-linejoin="round"/>
    <path d="M190.9 180.2c-.6-2.2 3.8-3.5 6.3-4.9 4.1-2.2 5.1.6 10.2-.8.5 1.9 1.1 3.8.9 5.7h-17.4zm21.8 0c-.6-2.2 3.8-3.5 6.3-4.9 4.1-2.2 5.1.6 10.2-.8.5 1.9 1.1 3.8.9 5.7h-17.4z" fill="#E7655B" fill-rule="nonzero"/>
    <path fill="#F1F1F1" fill-rule="nonzero" d="M105.7 180.5H100l1.2-60.1 4.5-1.2z"/>
    <path d="M151.8 138.4h-24.3c-2.3 0-4.2-1.9-4.2-4.2v-1.4H156v1.4c0 2.3-1.9 4.2-4.2 4.2zm-7-5.6h-21.4l-7.2-45.6h28.6v45.6z" fill="#D8DBDC" fill-rule="nonzero"/>
    <path fill="#F6B37E" fill-rule="nonzero" d="M62.9 68.2h-9.1l1.3-12.7h6z"/>
    <path d="M68.9 54.7c-6.2 10.3-26.4 6-25.8-14.1.5-16.6 22.3-20.2 27.5-7.2.6 1.5.7 3 .6 4.6 0 1.6.3 3.1.9 4.6.3.7.7 1.5.9 2.3.2.8 0 1.7-.7 2.2-.5.3-1.1.4-1.5.8-.4.4-.5.9-.6 1.5-.3 1.6-.4 3.8-1.3 5.3z" fill="#F6B37E" fill-rule="nonzero"/>
    <path d="M44.5 107.9c-1.2 12.8 3.8 31.5 3.1 44.3-.8 14.2-1 21.3-.8 24.7h8.8c.5-22.1 5.7-39.5 6.4-53.2 0-.3.4-.3.5 0 1.5 15.6 5.4 37.1 3 52.5 1.8.3 6.7.4 8.5.2.6-.1 6.2-48 1.3-70.4l-30.8 1.9z" fill="#4C4C4B" fill-rule="nonzero"/>
    <path d="M40.3 96.2c1.6-11.7 4.2-17 4.2-17l-1.6 38.3 22.3.3c.4 0 .7-.2.8-.6l.6-1.7c.2-.7 1.2-.8 1.6-.1l.9 1.9c.2.3.5.5.9.5l7.9-1.3-6.6-38.7c12.5-3.6 20.5-8.8 26-14.4l-7.2-7.3C83 61 74.3 63.2 63.8 63.6c-3.7.1-8.1-.5-11.8-.7-3.7-.2-7.6 0-10.7 2.1-2 1.4-3.5 3.4-4.7 5.5-1.8 3-3.2 6.2-4.2 9.6-1.4 5-2.4 10.3-2.5 15.6l10.4.5z" fill="#FFF" fill-rule="nonzero"/>
    <path d="M107.3 34.3c-.1.4.1.7.4.9 1 .4.9 1.9 2.1 2.7 1.5 1.1.7 3.6-.1 5.2-2.9 6.1-6.1 14-13.5 21.1-1.3-1.2-2.5-2.4-3.7-3.7-1.3-1.3-2.6-2.5-4-3.7 5.8-3.7 10.6-9.1 14.3-16.7.8-1.7-.6-3.3.8-4.7.3-.3.7-.6.9-1l1.9-4.1c.2-.4.6-.6 1.1-.5h.1c.5.1.9.7.7 1.2l-1 3.3zm-68.2 86.8c-.4-10.6.3-18.8 1.2-25.7l-10.5.8c-.5 9.4 1.6 16.8 2.8 25.2.2 1.4.1 3.8.1 5.2-.2 4.2 6.6 7.7 6.4-1.8 0-.4.3-.7.6-.7s.5-.1.6-.6c0-.2-.1-.5-.2-.7-.2-.6-.9-1-1-1.7z" fill="#F6B37E" fill-rule="nonzero"/>
    <path d="M29.1 92.9l-.1 4.6 11.9 1.4.7-5.2-12.5-.8zm66.7-26.7l3.5-3.2-8-8.9-4.1 3 8.6 9.1z" fill="#FFF" fill-rule="nonzero"/>
    <path d="M52.8 63c4.1 7.3 2.5 4.6 6.5 2.5 1.3-.7 1.5-.2 4.3 1.3.5-.9.8-2 .8-3m-3.1 2.1c1.7 20.2 4.8 34.6 5.7 45.4m2.8-39.8c.7 3.3 1.3 6.6 1.8 10m-13-9.1c0 .2 0 .4.1.6m1.1 6.2c0 .2 0 .3.2.5m.9 6.2c.1.2.1.4.1.6m.7 6c0 .2 0 .4.1.6m.8 6.3v.3m.3 7.5v.5m-22.5-14l-11.3-.8m58.1-35.8l7.8 8.1" opacity=".6" stroke="#C0BEBF" stroke-width=".6" stroke-linecap="round" stroke-linejoin="round"/>
    <path d="M63.5 180.4c0-1-.6-2.3-1.3-2.9-.7-.6-1.6-1-2.5-1.4-.6-.2-1.3-.5-1.9-.6-2.3-.4-4.5.4-6.8.6-.8.1-1.6 0-2.4 0h-1.9c0 1.4 0 2.9.1 4.3h16.7zm18.7 0c0-1-.5-1.9-1.2-2.5-.7-.6-1.6-1-2.5-1.4-.6-.2-1.3-.5-1.9-.6-2.3-.4-4.6 0-6.9.2-.8.1-1.6 0-2.4 0h-1.9c0 1.4 0 2.9.1 4.3h16.7z" fill="#E7655B" fill-rule="nonzero"/>
    <path d="M56.9 174.6c-.2.6-.3 1.3-.3 1.9m2.2-1.2c0 .5-.1 1-.1 1.5m16.4-1.6c0 .6 0 1.1-.2 1.7m2-1.7v2" stroke="#B93535" stroke-width=".6" stroke-linecap="round" stroke-linejoin="round"/>
    <path d="M46.3 123.4c2-.6 5-2.3 5.6-5.1" stroke="#2D2D2D" stroke-width=".6" stroke-linecap="round" stroke-linejoin="round"/>
    <path d="M139.7 36.4c-12.5 1-9.9 12.8-11.6 16.6-1.2 2.6-3.8 4.5-4.9 7.1-1.5 3.7.3 8.2-1.3 11.9-.5 1.2-17.6 17.5 12.9 20.9 37 4.2 31.9-15.4 32.2-19.7.5-5.8 5.5-10.9 4.6-16.7-.5-2.7-2.2-5-3.5-7.5-3.5-6.6-1.4-9.7-5.7-11.6-5.2-2.3-9.3 1.3-12.2 1-2.9-.3-4.1-2.5-10.5-2z" fill="#4C4C4B" fill-rule="nonzero"/>
    <path d="M136.6 57.7c-1.7 15.4 14.8 26.5 21.4 8.5.6-1.8 1.2-3.8 1.6-6.1.4-2.3.4-4.4 0-6-1.4-6.2-7.5-8.3-13.2-8.5-4.9-.2-8.3-1.1-9.8 12.1z" fill="#D1916D" fill-rule="nonzero"/>
    <path d="M133.7 61.6c3.4.2 6.9-.9 9.6-3 5.6-4.2 7.8-12.2 14-15.4-24.4-3-27.5 12.2-23.6 18.4z" fill="#4C4C4B" fill-rule="nonzero"/>
    <path d="M152.2 80.7h-8.1v-10h5.8l2.3 10zm28.2 51.3c-.3 14-2.4 29.5-4.3 43.4-2.8.4-4.4.3-7.2 0 1-11.4-.4-28.2-1.3-39.7-.1-1.6-.7-3.2-1.6-4.4l14.4.7z" fill="#D1916D" fill-rule="nonzero"/>
    <path d="M166.7 132c-.3 14-2.4 29.5-4.3 43.4-2.8.4-4.4.3-7.2 0 1-11.4-.4-28.2-1.3-39.7-.1-1.6-.7-3.2-1.6-4.4" fill="#D1916D" fill-rule="nonzero"/>
    <path d="M170 180.2c.5-2-3.4-3.2-5.7-4.4-3.7-2-4.6.5-9.2-.8-.5 1.7-1 3.4-.8 5.1H170v.1z" fill="#4C4C4B" fill-rule="nonzero"/>
    <path d="M183.7 180.2c.5-2-3.4-3.2-5.7-4.4-3.7-2-4.6.5-9.2-.8-.5 1.7-1 3.4-.8 5.1h15.7v.1z" fill="#4C4C4B" fill-rule="nonzero"/>
    <path d="M144.1 78s4.1.5 7.7.6c0 0 13.7 3.2 11 12.1-2 6.6-6.5 17.5-2.6 26.1l5.9 3.2c12.1 2.9 15.5 8.4 15.5 14.4v2.9c0 .9-.7 1.5-1.6 1.5-33.6 0-40.7.6-42.5-.5-8-4.9-9.8-13.6-8.8-21.5l2.6-28.7c.6-4.6 3-7.9 7.5-8.9l5.3-1.2z" fill="#00C6B6" fill-rule="nonzero"/>
    <path fill="#F1F1F1" fill-rule="nonzero" d="M201.1 180.5h-4.5l-1.2-60.1h5.7z"/>
    <path d="M209.6 120.4l-11.6 1.4c-30.8 3.7-66.4 3.7-97.2 0l-11.6-1.4L88 109l121.5 1.4v10h.1z" fill="#FFF" fill-rule="nonzero"/>
    <path stroke="#D8DBDC" stroke-width=".6" stroke-linecap="round" stroke-linejoin="round" d="M89.4 120.4L88.1 109l29.4.3"/>
    <path d="M137.6 106.9c-.4 0-.7-.5-.4-.9 1.2-1.4 3.8-3.9 6.8-1.3.7.6 1.1.2 1.6.4.2.1.4.2.5.4.1.2 0 .5.1.7 0 .1.1.2.1.3 0 .2-.1.4-.2.5l-8.5-.1z" fill="#D1916D" fill-rule="nonzero"/>
    <path d="M137.6 91.4l-3.9 8.4c-.1.3 0 .6.2.8l4.5 2.8" stroke="#178377" stroke-width=".6" stroke-linecap="round" stroke-linejoin="round"/>
    <path d="M132.9 83.2l-7.5 13.6c-2.3 4.3-1 9.6 3.2 12.2l.8.5" fill="#00C6B6" fill-rule="nonzero"/>
    <path d="M156.7 90l-.2 4.5" stroke="#178377" stroke-width=".6" stroke-linecap="round" stroke-linejoin="round"/>
    <path d="M151.5 109.8l9.2-20h34l-6.8 18.6c-.4 1.1-1.4 1.8-2.6 1.8l-33.8-.4z" fill="#D8DBDC" fill-rule="nonzero"/>
    <ellipse fill="#F1F1F1" fill-rule="nonzero" transform="rotate(-73.165 174.635 100.274)" cx="174.635" cy="100.274" rx="5" ry="4.5"/>
    <path d="M193.4 88.3l-34.8-.3-7.5 18.8h-15.7v.6c0 1.1.9 2 2 2.1l13.5.2c.9 0 1.8-.5 2.1-1.4l7.6-18.4h34l-1.2-1.6zM281.5 175.5h-3.3l-.9-28.5h4.9z" fill="#F1F1F1" fill-rule="nonzero"/>
    <path d="M255 144.5c.3 2.4 2.3 4.2 4.7 4.1l37.3-.5c5.9-.4 10.2-5.6 9.6-11.4-.3-3.7-.3-7.9.9-12 2.8-10.1 9.2-13.9 11.2-29.2.3-2.5-1.4-4.9-3.9-5.2l-3.6-.5-18.2 47.1-38.3 4.8.3 2.8z" fill="#D8DBDC" fill-rule="nonzero"/>
    <path fill="#B27B62" fill-rule="nonzero" d="M302.8 79.1l-1.2 8.8 8.4-.5-1.7-9.5z"/>
    <path d="M286.3 140.9l-12.2 2.8c-6.9 1.6-14.1 1.7-21.1.3l-13.9-2.7-2.4 11.2c-.7 3.3-1 6.8-.9 10.2l-1 10.5h-9.5l-2-31.8c-.5-6.9 4.3-13.1 11.1-14.6l19-4-6.4-11.5s-4.3 8.2-4.9 11.2l-7-1.7s-.3-7.8 2.3-19.9c0 0 7.6-12.1 17 0s17.7 16.5 17.7 16.5l14.2 23.5z" fill="#7E9CF1" fill-rule="nonzero"/>
    <path d="M312 86.2h-12.4c-4.2 5.2-8.9 10.1-13.4 14.9-5.4 5.7-10.8 11.4-17.4 15.7-.4.3-.9.6-.9 1.1 0 .4.2.7.5 1 1.7 2.1 3.7 3.9 5.3 6.1 2.3 3.1 3.9 6.7 6.2 9.8 3 3.9 7.1 7 11.7 8.6 6.1-13.3 14.3-24.3 19.4-38 2.9-7.8 1.1-13.4 1-19.2z" fill="#FFF" fill-rule="nonzero"/>
    <path d="M286.7 103.3c-2.1-6.5-1.3-12-1.3-12l-5.9-1.1s-4.3 12 .3 20.9" fill="#F1F1F1" fill-rule="nonzero"/>
    <path d="M288.5 83.2c.2-.2.6-.3.9-.1.3.2.4.5.3.8l-.3.6c-.4.8-.2 1.7-.5 2.5-.4 1.1-1.6 1.7-2.3 2.5-.4.5-.8 1.2-1.1 1.7l-5.9-1.1c.4-2 .4-4.1.3-6.2 0-.5 0-1 .1-1.5.3-1.1 1.3-1.7 2.3-2.3.5-.3 1-.7 1.6-1 .5-.3 1-.6 1.6-.7.8-.1 1.7.3 2.3.9.6.6 1 1.4 1.4 2.1.1.3.3.6.3.9 0 .7-.5 1.3-1.1 1.7-.9.7-1.8 1.2-2.8 1.7-.6.3-1.2.5-1.8.4-1-.2-1.6-1.1-2.2-2" fill="#B27B62" fill-rule="nonzero"/>
    <path d="M266.1 115.6l-9.9-22.5c-.3-.6 0-1.3.6-1.5l14.7-5.3c.6-.2 1.2.1 1.4.7l7.3 21.3c.2.5 0 1.1-.5 1.3l-12.2 6.5c-.4.4-1.1.1-1.4-.5z" fill="#D8DBDC" fill-rule="nonzero"/>
    <path fill="#FFF" fill-rule="nonzero" d="M258.6 94.4l13.5-5.1 5.6 17.6-11.1 4.7z"/>
    <path d="M274.5 127.9c-3.1 3.3-.2 8 2.2 10.4" stroke="#587CCB" stroke-width=".6" stroke-linecap="round" stroke-linejoin="round"/>
    <path d="M294.7 60c-1.2 2.6-3.9 4.4-5.3 6.5-1.3 2.3 3 3.2 2.9 5.3-.1 2.8-2.3 6.1 3 8.5 8.7 4.1 22.8-.8 22.6-16.4-.1-12.9-9.9-17.1-17.6-13.1-3.3 1.8-4.1 6-5.6 9.2z" fill="#B27B62" fill-rule="nonzero"/>
    <path d="M299.6 95.4s-3.5 6-5.6 19.4c0 0-14.3 1.2-22.7-4.7 0 0-3.5 1.5-2.9 6.1 0 0 16 13.6 31.4 11.4 1.5-.2 2.8-1.2 3.4-2.6 2.5-5.5 9-20.2 9.2-26" fill="#FFF" fill-rule="nonzero"/>
    <path d="M276.1 121.4c5.8 3 8.3 4.1 14.2 5.8m7.1-26.4c-1.1 3.2-2.4 7.8-3.3 14.1 0 0-9.8.8-18-2.3" stroke="#C0BEBF" stroke-width=".6" stroke-linecap="round" stroke-linejoin="round"/>
    <path d="M215.9 180.3c-1.4-3.6 6.8-3.9 9.5-7.2h9.5c1.1 3.2 2.8 6.3 1.5 7.2" fill="#4C4C4B" fill-rule="nonzero"/>
    <path d="M245.6 124.3c5.1-1.1 10.2-2 15.3-2.6" stroke="#587CCB" stroke-width=".6" stroke-linecap="round" stroke-linejoin="round"/>
    <path d="M224.3 154l1.2 19h9.5s1.1-15.8 1.5-18.4l-12.2-.6z" fill="#B27B62" fill-rule="nonzero"/>
    <path fill="#7E9CF1" fill-rule="nonzero" d="M237.2 158.1l-13.8-.7-.6-5.2 14.4.7z"/>
    <path d="M222.8 152.2l11.8.6" stroke="#587CCB" stroke-width=".6" stroke-linecap="round" stroke-linejoin="round"/>
    <path d="M225.2 121.2c1.5-.3 3.1 0 4.6-.1 2.8-.2 5.5-1.9 8.3-2.1 4.8-.3 9.5 10.7.9 11.2-16.2.9-20.2-7.7-13.8-9z" fill="#4C4C4B" fill-rule="nonzero"/>
    <path d="M223.9 122.9c2.1-.6 4.4-.4 6.5 0 2.2.4 4.3 1 6.5 1.2 1.9.2 3.8.1 5.7 0" stroke="#2D2D2D" stroke-width=".6" stroke-linecap="round" stroke-linejoin="round"/>
    <path d="M242.4 121.6c.5-2.4 3.2-7.7 4.3-9.8l-10-7c-1.7 9.7-1.4 14.9-1.4 14.9 2.5-.8 5.2-.1 7 1.8l.1.1z" fill="#B27B62" fill-rule="nonzero"/>
    <path fill="#7E9CF1" fill-rule="nonzero" d="M246.4 112.3l-11.8-4.1.9-5.2 13.5 4.7z"/>
    <path d="M235.5 103l3.3 1.2m7.6 8.1l2-4.4" stroke="#587CCB" stroke-width=".6" stroke-linecap="round" stroke-linejoin="round"/>
    <path d="M286.9 87.5l-1.9-.9 5.4-11.5c.2-.5.9-.7 1.4-.5.5.2.7.9.5 1.4l-5.4 11.5z" fill="#D8DBDC" fill-rule="nonzero"/>
    <path fill="#BDBEBD" fill-rule="nonzero" d="M285.248 86.7l1.36.635-.34.724-1.36-.637z"/>
    <path d="M285.1 88.9c-.2-.1-.3-.3-.2-.4l.2-.9 1.1.5-.6.7c-.1.1-.3.1-.5.1z" fill="#D8DBDC" fill-rule="nonzero"/>
    <path d="M283.6 86.2c.6.1 1.2-.1 1.8-.4 1-.5 1.9-1 2.8-1.7.6-.4 1.1-1 1.1-1.7 0-.3-.2-.6-.3-.9l-.9-1.6-4.5 6.3z" fill="#B27B62" fill-rule="nonzero"/>
    <path d="M288.3 84.1c-.9.7-1.8 1.2-2.8 1.7-.6.3-1.2.5-1.8.4-1-.2-1.6-1.1-2.2-2" stroke="#9B6049" stroke-width=".6" stroke-linecap="round" stroke-linejoin="round"/>
    <path d="M270.6 110.8c-1.7-.8-3.7-2.2-4.9-3.6-.1-.1-.3-.3-.5-.4-.4-.1-.7.2-.8.6-.1.3-.2.7-.4 1-.4.5-1.4.5-1.7 1-.2.3-.2.7-.1 1 .1 1 .4 2 .9 2.9.3.8.8 2.2 1.5 2.5 1 .5 3-.1 4 .4" fill="#B27B62" fill-rule="nonzero"/>
    <path d="M263 98.7c.8-.6 1.7-1.2 2.6-1.3h1.1c.9-.1 1.6-.8 2.3-1.3.7-.5 1.6-1 2.5-.8m-6.7 7.4c.6-1.1 1.7-1.8 2.9-1.9.5 0 .9 0 1.4-.1.4-.1.9-.4 1-.8.2.1.4.3.6.4.1.1.2.1.3.1.1 0 .2-.1.2-.2.4-.5 1.1-.8 1.8-.9m-6.2 6c.4-.2.7-.4 1.1-.6 1-.7 1.9-1.7 3.1-1.9.8-.1 1.8 0 2.4-.5" stroke="#C0BEBF" stroke-width=".6" stroke-linecap="round" stroke-linejoin="round" opacity=".3"/>
    <path d="M263.2 91.2l4.1-1.5" stroke="#C0BEBF" stroke-width=".6" stroke-linecap="round" stroke-linejoin="round"/>
    <path d="M268.9 180.3s10.5-12.3 21.9 0h-21.9zM302 89.7c-1.5-2.2-3.4-1.3-3.4-1.3-1.2 6.1 2 3.8 3.4 1.3z" fill="#D8DBDC" fill-rule="nonzero"/>
    <path d="M286.2 107.5c6.6-5.3 12.5-16.8 12.5-16.8l1.4 1.1s-4 8.4-10.4 16.8l-3.2 1-.3-2.1z" fill="#D8DBDC" fill-rule="nonzero"/>
    <path d="M312.6 73.2c-.9-.6-.6-2.1.4-2.3.3-.1.6-.2.8-.3.9-.5 1.5-1.7 1.3-2.7-.1-.7-.6-1.3-1.2-1.7-.6-.3-1.3-.1-1.9-.3-5.3 1.2-2.6-9.1-5.5-11.6-3.5-3-5.4 2.8-14 .5-10-2.6-3.9-14.2 2.4-10.5 2.2-.4 1.7-2.7 3.7-3.5 2.6-1.1 5.8-.6 7.9 1.3.6.5 1.1 1.1 1.8 1.5 1.3.7 3 .5 4.5.7 2.9.4 5.4 2.7 6.2 5.5.2.9.9 1.6 1.7 1.9 1.6.7 3 2.2 3.5 3.8.6 2.2 0 4.6-.3 6.6-.3 2.3-.9 4.5-2 6.5-.9 1.6-2.1 3.3-3.7 4.3-1.3.8-2.9 1.2-4.4.9-.4-.1-.8-.3-1.2-.6z" fill="#6B596A" fill-rule="nonzero"/>
    <path d="M312 65.9c-5.3 1.2-2.6-9.1-5.5-11.6-2.2-1.8-3.7-.3-6.7.6" stroke="#493B47" stroke-width=".6" stroke-linecap="round" stroke-linejoin="round"/>
    <path d="M53.3 42.9c-.3-.6-.6-1.3-.6-1.9-.1-1.4.8-2.7 2-3.4 1.5-.9 3.3-.9 5-.8 1.5.1 2.9.4 4.4 0 4-1 9.9-2.9 12.7-6.9 0 0-2.3-.2-4.6-1.1 1.5-1.8 2.2-4.2 1.9-6.5-1.6.2-3.2.2-4.7-.1.2-1-.1-3-.5-3.9-3.6 2.9-6.9 6.3-11.5 6.7-2.9.3-6.5-.2-9.4.5-3.7.9-6.7 4.1-7.9 7.7-1.2 3.6-.9 7.7.3 11.3 1.2 3.6 3.3 6.9 5.3 10.2 2 3.3 5.9 1.8 6.9-.6.2-.5 0-1.1-.5-1.4-1.2-.7-2.3-2.9-2.1-4.1.2-1.4.7-3.1 3-2.6-.1 0 2.6.9.3-3.1z" fill="#E7655B" fill-rule="nonzero"/>
    <path d="M53.3 42.9c-.3-.6-.6-1.3-.6-1.9-.1-1.4.8-2.7 2-3.4 1.5-.9 3.3-.9 5-.8 1.5.1 5.6 1.1 12.8-3.1" stroke="#B93535" stroke-width=".6" stroke-linecap="round" stroke-linejoin="round"/>
    <path d="M.4 180.5h344.2" stroke="#D8DBDC" stroke-width=".6" stroke-linecap="round" stroke-linejoin="round"/>
    <path d="M149.7 142.7l-7.4-.5v4.8h6.9l.5-4.3zm132.9 8.7l-5.9-.7.3 3.5h5.6v-2.8z" fill="#D8DBDC" fill-rule="nonzero"/>
    <path d="M142.4 78.8c-.5.8-.3 1.5.2 1.8.7.4 1.5-.2 2.2-.2.5 0 1 .4 1.5.6 2.9 1.4 3.9-1.5 5.2-1.2.5.1 1.3.3 1.4-.7" stroke="#178377" stroke-width=".6" stroke-linecap="round" stroke-linejoin="round"/>
  </g>
</svg>
